# xmcd CD database file
#
# Track frame offsets:
#	150
#	20095
#	40257
#	57205
#	76062
#	93192
#	113197
#	132725
#	148762
#	164300
#	182700
#	198962
#	216472
#
# Disc length: 3115 seconds
#
# Revision: 3
# Processed by: cddbd v1.5.2PL0 Copyright (c) Steve Scherf et al.
# Submitted via: CDex 1.70beta3
#
DISCID=ba0c290d
DTITLE=Harlan Cage - Forbidden Colors
DYEAR=1999
DGENRE=Melodic Hard Rock
TTITLE0=No Sunday Bride
TTITLE1=Chinatown
TTITLE2=Thrill Of It All
TTITLE3=Can't Tame The Raven
TTITLE4=Hard Yellow Line (You Lied To Me)
TTITLE5=Last Plane Out
TTITLE6=A Little Rain
TTITLE7=Feel The Wheel
TTITLE8=Making My Way Back To You
TTITLE9=Late Night Escapades
TTITLE10=Before The Night Is Gone
TTITLE11=Two Ships In The Night
TTITLE12=What A Fool I've Been (Bonus Tracks)
EXTD=YEAR: 1999
EXTT0=
EXTT1=
EXTT2=
EXTT3=
EXTT4=
EXTT5=
EXTT6=
EXTT7=
EXTT8=
EXTT9=
EXTT10=
EXTT11=
EXTT12=
PLAYORDER=
